ISO-10303-21;
HEADER;
/* Generated by software containing ST-Developer
 * from STEP Tools, Inc. (www.steptools.com) 
 */

FILE_DESCRIPTION(
/* description */ (''),
/* implementation_level */ '2;1');

FILE_NAME(
/* name */ 'Case Bottom.step',
/* time_stamp */ '2026-09-21T09:08:05+05:30',
/* author */ (''),
/* organization */ (''),
/* preprocessor_version */ 'ST-DEVELOPER v20.1',
/* originating_system */ 'Autodesk Translation Framework v15.8.0.0',
/* authorisation */ '');

FILE_SCHEMA (('AUTOMOTIVE_DESIGN { 1 0 10303 214 3 1 1 }'));
ENDSEC;

DATA;
#10=MECHANICAL_DESIGN_GEOMETRIC_PRESENTATION_REPRESENTATION('',(#13),#1153);
#11=SHAPE_REPRESENTATION_RELATIONSHIP('SRR','None',#1160,#12);
#12=ADVANCED_BREP_SHAPE_REPRESENTATION('',(#14),#1152);
#13=STYLED_ITEM('',(#1169),#14);
#14=MANIFOLD_SOLID_BREP('Body1',#669);
#15=FACE_BOUND('',#95,.T.);
#16=FACE_BOUND('',#96,.T.);
#17=FACE_BOUND('',#97,.T.);
#18=FACE_BOUND('',#98,.T.);
#19=FACE_BOUND('',#101,.T.);
#20=FACE_BOUND('',#102,.T.);
#21=FACE_BOUND('',#118,.T.);
#22=FACE_BOUND('',#121,.T.);
#23=FACE_BOUND('',#124,.T.);
#24=FACE_BOUND('',#127,.T.);
#25=FACE_BOUND('',#135,.T.);
#26=FACE_BOUND('',#136,.T.);
#27=FACE_BOUND('',#137,.T.);
#28=FACE_BOUND('',#138,.T.);
#29=PLANE('',#686);
#30=PLANE('',#690);
#31=PLANE('',#691);
#32=PLANE('',#692);
#33=PLANE('',#693);
#34=PLANE('',#694);
#35=PLANE('',#709);
#36=PLANE('',#713);
#37=PLANE('',#715);
#38=PLANE('',#717);
#39=PLANE('',#721);
#40=PLANE('',#724);
#41=PLANE('',#727);
#42=PLANE('',#733);
#43=PLANE('',#738);
#44=PLANE('',#743);
#45=PLANE('',#748);
#46=PLANE('',#752);
#47=PLANE('',#755);
#48=PLANE('',#756);
#49=FACE_OUTER_BOUND('',#87,.T.);
#50=FACE_OUTER_BOUND('',#88,.T.);
#51=FACE_OUTER_BOUND('',#89,.T.);
#52=FACE_OUTER_BOUND('',#90,.T.);
#53=FACE_OUTER_BOUND('',#91,.T.);
#54=FACE_OUTER_BOUND('',#92,.T.);
#55=FACE_OUTER_BOUND('',#93,.T.);
#56=FACE_OUTER_BOUND('',#94,.T.);
#57=FACE_OUTER_BOUND('',#99,.T.);
#58=FACE_OUTER_BOUND('',#100,.T.);
#59=FACE_OUTER_BOUND('',#103,.T.);
#60=FACE_OUTER_BOUND('',#104,.T.);
#61=FACE_OUTER_BOUND('',#105,.T.);
#62=FACE_OUTER_BOUND('',#106,.T.);
#63=FACE_OUTER_BOUND('',#107,.T.);
#64=FACE_OUTER_BOUND('',#108,.T.);
#65=FACE_OUTER_BOUND('',#109,.T.);
#66=FACE_OUTER_BOUND('',#110,.T.);
#67=FACE_OUTER_BOUND('',#111,.T.);
#68=FACE_OUTER_BOUND('',#112,.T.);
#69=FACE_OUTER_BOUND('',#113,.T.);
#70=FACE_OUTER_BOUND('',#114,.T.);
#71=FACE_OUTER_BOUND('',#115,.T.);
#72=FACE_OUTER_BOUND('',#116,.T.);
#73=FACE_OUTER_BOUND('',#117,.T.);
#74=FACE_OUTER_BOUND('',#119,.T.);
#75=FACE_OUTER_BOUND('',#120,.T.);
#76=FACE_OUTER_BOUND('',#122,.T.);
#77=FACE_OUTER_BOUND('',#123,.T.);
#78=FACE_OUTER_BOUND('',#125,.T.);
#79=FACE_OUTER_BOUND('',#126,.T.);
#80=FACE_OUTER_BOUND('',#128,.T.);
#81=FACE_OUTER_BOUND('',#129,.T.);
#82=FACE_OUTER_BOUND('',#130,.T.);
#83=FACE_OUTER_BOUND('',#131,.T.);
#84=FACE_OUTER_BOUND('',#132,.T.);
#85=FACE_OUTER_BOUND('',#133,.T.);
#86=FACE_OUTER_BOUND('',#134,.T.);
#87=EDGE_LOOP('',(#433,#434,#435,#436));
#88=EDGE_LOOP('',(#437));
#89=EDGE_LOOP('',(#438,#439,#440,#441));
#90=EDGE_LOOP('',(#442));
#91=EDGE_LOOP('',(#443,#444,#445,#446));
#92=EDGE_LOOP('',(#447,#448,#449,#450));
#93=EDGE_LOOP('',(#451,#452,#453,#454));
#94=EDGE_LOOP('',(#455,#456,#457,#458,#459,#460,#461,#462,#463,#464,#465,
#466,#467,#468,#469,#470,#471,#472,#473,#474));
#95=EDGE_LOOP('',(#475));
#96=EDGE_LOOP('',(#476));
#97=EDGE_LOOP('',(#477));
#98=EDGE_LOOP('',(#478));
#99=EDGE_LOOP('',(#479,#480,#481,#482));
#100=EDGE_LOOP('',(#483,#484,#485,#486,#487,#488,#489,#490));
#101=EDGE_LOOP('',(#491));
#102=EDGE_LOOP('',(#492));
#103=EDGE_LOOP('',(#493,#494,#495,#496));
#104=EDGE_LOOP('',(#497,#498,#499,#500));
#105=EDGE_LOOP('',(#501,#502,#503,#504));
#106=EDGE_LOOP('',(#505,#506,#507,#508));
#107=EDGE_LOOP('',(#509,#510,#511,#512));
#108=EDGE_LOOP('',(#513,#514,#515,#516));
#109=EDGE_LOOP('',(#517,#518,#519,#520));
#110=EDGE_LOOP('',(#521,#522,#523,#524,#525,#526,#527,#528));
#111=EDGE_LOOP('',(#529,#530,#531,#532));
#112=EDGE_LOOP('',(#533,#534,#535,#536));
#113=EDGE_LOOP('',(#537,#538,#539,#540));
#114=EDGE_LOOP('',(#541,#542,#543,#544));
#115=EDGE_LOOP('',(#545,#546,#547,#548));
#116=EDGE_LOOP('',(#549,#550,#551,#552));
#117=EDGE_LOOP('',(#553));
#118=EDGE_LOOP('',(#554));
#119=EDGE_LOOP('',(#555,#556,#557,#558));
#120=EDGE_LOOP('',(#559));
#121=EDGE_LOOP('',(#560));
#122=EDGE_LOOP('',(#561,#562,#563,#564));
#123=EDGE_LOOP('',(#565));
#124=EDGE_LOOP('',(#566));
#125=EDGE_LOOP('',(#567,#568,#569,#570));
#126=EDGE_LOOP('',(#571));
#127=EDGE_LOOP('',(#572));
#128=EDGE_LOOP('',(#573,#574,#575,#576));
#129=EDGE_LOOP('',(#577,#578,#579,#580));
#130=EDGE_LOOP('',(#581,#582,#583,#584,#585,#586,#587,#588));
#131=EDGE_LOOP('',(#589,#590,#591,#592));
#132=EDGE_LOOP('',(#593,#594,#595,#596));
#133=EDGE_LOOP('',(#597,#598,#599,#600));
#134=EDGE_LOOP('',(#601,#602,#603,#604,#605,#606,#607,#608));
#135=EDGE_LOOP('',(#609));
#136=EDGE_LOOP('',(#610));
#137=EDGE_LOOP('',(#611));
#138=EDGE_LOOP('',(#612));
#139=LINE('',#966,#193);
#140=LINE('',#973,#194);
#141=LINE('',#979,#195);
#142=LINE('',#981,#196);
#143=LINE('',#983,#197);
#144=LINE('',#984,#198);
#145=LINE('',#988,#199);
#146=LINE('',#990,#200);
#147=LINE('',#992,#201);
#148=LINE('',#993,#202);
#149=LINE('',#995,#203);
#150=LINE('',#996,#204);
#151=LINE('',#999,#205);
#152=LINE('',#1003,#206);
#153=LINE('',#1007,#207);
#154=LINE('',#1011,#208);
#155=LINE('',#1014,#209);
#156=LINE('',#1016,#210);
#157=LINE('',#1020,#211);
#158=LINE('',#1024,#212);
#159=LINE('',#1028,#213);
#160=LINE('',#1031,#214);
#161=LINE('',#1044,#215);
#162=LINE('',#1045,#216);
#163=LINE('',#1048,#217);
#164=LINE('',#1052,#218);
#165=LINE('',#1056,#219);
#166=LINE('',#1059,#220);
#167=LINE('',#1061,#221);
#168=LINE('',#1063,#222);
#169=LINE('',#1064,#223);
#170=LINE('',#1066,#224);
#171=LINE('',#1068,#225);
#172=LINE('',#1070,#226);
#173=LINE('',#1074,#227);
#174=LINE('',#1077,#228);
#175=LINE('',#1080,#229);
#176=LINE('',#1081,#230);
#177=LINE('',#1084,#231);
#178=LINE('',#1088,#232);
#179=LINE('',#1089,#233);
#180=LINE('',#1092,#234);
#181=LINE('',#1096,#235);
#182=LINE('',#1097,#236);
#183=LINE('',#1100,#237);
#184=LINE('',#1106,#238);
#185=LINE('',#1115,#239);
#186=LINE('',#1124,#240);
#187=LINE('',#1133,#241);
#188=LINE('',#1139,#242);
#189=LINE('',#1141,#243);
#190=LINE('',#1144,#244);
#191=LINE('',#1146,#245);
#192=LINE('',#1148,#246);
#193=VECTOR('',#763,2.5);
#194=VECTOR('',#772,2.5);
#195=VECTOR('',#779,10.);
#196=VECTOR('',#780,10.);
#197=VECTOR('',#781,10.);
#198=VECTOR('',#782,10.);
#199=VECTOR('',#785,10.);
#200=VECTOR('',#786,10.);
#201=VECTOR('',#787,10.);
#202=VECTOR('',#788,10.);
#203=VECTOR('',#791,10.);
#204=VECTOR('',#792,10.);
#205=VECTOR('',#795,10.);
#206=VECTOR('',#798,10.);
#207=VECTOR('',#801,10.);
#208=VECTOR('',#804,10.);
#209=VECTOR('',#807,10.);
#210=VECTOR('',#808,10.);
#211=VECTOR('',#811,10.);
#212=VECTOR('',#814,10.);
#213=VECTOR('',#817,10.);
#214=VECTOR('',#820,10.);
#215=VECTOR('',#833,10.);
#216=VECTOR('',#834,10.);
#217=VECTOR('',#837,10.);
#218=VECTOR('',#840,10.);
#219=VECTOR('',#843,10.);
#220=VECTOR('',#846,10.);
#221=VECTOR('',#849,10.);
#222=VECTOR('',#852,10.);
#223=VECTOR('',#853,10.);
#224=VECTOR('',#856,10.);
#225=VECTOR('',#859,10.);
#226=VECTOR('',#862,10.);
#227=VECTOR('',#867,10.);
#228=VECTOR('',#870,10.);
#229=VECTOR('',#873,10.);
#230=VECTOR('',#874,10.);
#231=VECTOR('',#877,10.);
#232=VECTOR('',#882,10.);
#233=VECTOR('',#883,10.);
#234=VECTOR('',#886,10.);
#235=VECTOR('',#891,10.);
#236=VECTOR('',#892,10.);
#237=VECTOR('',#895,10.);
#238=VECTOR('',#902,2.5);
#239=VECTOR('',#913,2.5);
#240=VECTOR('',#924,2.5);
#241=VECTOR('',#935,2.5);
#242=VECTOR('',#944,1.7);
#243=VECTOR('',#947,1.7);
#244=VECTOR('',#952,1.7);
#245=VECTOR('',#955,1.7);
#246=VECTOR('',#958,10.);
#247=CIRCLE('',#684,2.5);
#248=CIRCLE('',#685,2.5);
#249=CIRCLE('',#688,2.5);
#250=CIRCLE('',#689,2.5);
#251=CIRCLE('',#695,5.);
#252=CIRCLE('',#696,5.);
#253=CIRCLE('',#697,5.);
#254=CIRCLE('',#698,5.);
#255=CIRCLE('',#699,0.5);
#256=CIRCLE('',#700,0.5);
#257=CIRCLE('',#701,0.5);
#258=CIRCLE('',#702,0.5);
#259=CIRCLE('',#703,1.7);
#260=CIRCLE('',#704,1.7);
#261=CIRCLE('',#705,1.7);
#262=CIRCLE('',#706,1.7);
#263=CIRCLE('',#708,0.5);
#264=CIRCLE('',#710,0.5);
#265=CIRCLE('',#711,0.5);
#266=CIRCLE('',#712,0.5);
#267=CIRCLE('',#720,5.);
#268=CIRCLE('',#723,5.);
#269=CIRCLE('',#726,5.);
#270=CIRCLE('',#729,5.);
#271=CIRCLE('',#731,2.5);
#272=CIRCLE('',#732,2.5);
#273=CIRCLE('',#734,1.7);
#274=CIRCLE('',#736,2.5);
#275=CIRCLE('',#737,2.5);
#276=CIRCLE('',#739,1.7);
#277=CIRCLE('',#741,2.5);
#278=CIRCLE('',#742,2.5);
#279=CIRCLE('',#744,1.7);
#280=CIRCLE('',#746,2.5);
#281=CIRCLE('',#747,2.5);
#282=CIRCLE('',#749,1.7);
#283=VERTEX_POINT('',#963);
#284=VERTEX_POINT('',#965);
#285=VERTEX_POINT('',#970);
#286=VERTEX_POINT('',#972);
#287=VERTEX_POINT('',#977);
#288=VERTEX_POINT('',#978);
#289=VERTEX_POINT('',#980);
#290=VERTEX_POINT('',#982);
#291=VERTEX_POINT('',#986);
#292=VERTEX_POINT('',#987);
#293=VERTEX_POINT('',#989);
#294=VERTEX_POINT('',#991);
#295=VERTEX_POINT('',#998);
#296=VERTEX_POINT('',#1000);
#297=VERTEX_POINT('',#1002);
#298=VERTEX_POINT('',#1004);
#299=VERTEX_POINT('',#1006);
#300=VERTEX_POINT('',#1008);
#301=VERTEX_POINT('',#1010);
#302=VERTEX_POINT('',#1012);
#303=VERTEX_POINT('',#1015);
#304=VERTEX_POINT('',#1017);
#305=VERTEX_POINT('',#1019);
#306=VERTEX_POINT('',#1021);
#307=VERTEX_POINT('',#1023);
#308=VERTEX_POINT('',#1025);
#309=VERTEX_POINT('',#1027);
#310=VERTEX_POINT('',#1029);
#311=VERTEX_POINT('',#1032);
#312=VERTEX_POINT('',#1034);
#313=VERTEX_POINT('',#1036);
#314=VERTEX_POINT('',#1038);
#315=VERTEX_POINT('',#1041);
#316=VERTEX_POINT('',#1042);
#317=VERTEX_POINT('',#1047);
#318=VERTEX_POINT('',#1049);
#319=VERTEX_POINT('',#1051);
#320=VERTEX_POINT('',#1053);
#321=VERTEX_POINT('',#1055);
#322=VERTEX_POINT('',#1057);
#323=VERTEX_POINT('',#1073);
#324=VERTEX_POINT('',#1075);
#325=VERTEX_POINT('',#1079);
#326=VERTEX_POINT('',#1083);
#327=VERTEX_POINT('',#1087);
#328=VERTEX_POINT('',#1091);
#329=VERTEX_POINT('',#1095);
#330=VERTEX_POINT('',#1099);
#331=VERTEX_POINT('',#1103);
#332=VERTEX_POINT('',#1105);
#333=VERTEX_POINT('',#1109);
#334=VERTEX_POINT('',#1112);
#335=VERTEX_POINT('',#1114);
#336=VERTEX_POINT('',#1118);
#337=VERTEX_POINT('',#1121);
#338=VERTEX_POINT('',#1123);
#339=VERTEX_POINT('',#1127);
#340=VERTEX_POINT('',#1130);
#341=VERTEX_POINT('',#1132);
#342=VERTEX_POINT('',#1136);
#343=EDGE_CURVE('',#283,#283,#247,.T.);
#344=EDGE_CURVE('',#283,#284,#139,.T.);
#345=EDGE_CURVE('',#284,#284,#248,.T.);
#346=EDGE_CURVE('',#285,#285,#249,.T.);
#347=EDGE_CURVE('',#285,#286,#140,.T.);
#348=EDGE_CURVE('',#286,#286,#250,.T.);
#349=EDGE_CURVE('',#287,#288,#141,.T.);
#350=EDGE_CURVE('',#289,#287,#142,.T.);
#351=EDGE_CURVE('',#289,#290,#143,.T.);
#352=EDGE_CURVE('',#288,#290,#144,.T.);
#353=EDGE_CURVE('',#291,#292,#145,.T.);
#354=EDGE_CURVE('',#293,#291,#146,.T.);
#355=EDGE_CURVE('',#293,#294,#147,.T.);
#356=EDGE_CURVE('',#292,#294,#148,.T.);
#357=EDGE_CURVE('',#290,#293,#149,.T.);
#358=EDGE_CURVE('',#294,#289,#150,.T.);
#359=EDGE_CURVE('',#288,#295,#151,.T.);
#360=EDGE_CURVE('',#296,#295,#251,.T.);
#361=EDGE_CURVE('',#296,#297,#152,.T.);
#362=EDGE_CURVE('',#298,#297,#252,.T.);
#363=EDGE_CURVE('',#298,#299,#153,.T.);
#364=EDGE_CURVE('',#300,#299,#253,.T.);
#365=EDGE_CURVE('',#300,#301,#154,.T.);
#366=EDGE_CURVE('',#302,#301,#254,.T.);
#367=EDGE_CURVE('',#302,#291,#155,.T.);
#368=EDGE_CURVE('',#292,#303,#156,.T.);
#369=EDGE_CURVE('',#304,#303,#255,.T.);
#370=EDGE_CURVE('',#304,#305,#157,.T.);
#371=EDGE_CURVE('',#306,#305,#256,.T.);
#372=EDGE_CURVE('',#306,#307,#158,.T.);
#373=EDGE_CURVE('',#308,#307,#257,.T.);
#374=EDGE_CURVE('',#308,#309,#159,.T.);
#375=EDGE_CURVE('',#310,#309,#258,.T.);
#376=EDGE_CURVE('',#310,#287,#160,.T.);
#377=EDGE_CURVE('',#311,#311,#259,.T.);
#378=EDGE_CURVE('',#312,#312,#260,.T.);
#379=EDGE_CURVE('',#313,#313,#261,.T.);
#380=EDGE_CURVE('',#314,#314,#262,.T.);
#381=EDGE_CURVE('',#315,#316,#263,.T.);
#382=EDGE_CURVE('',#315,#310,#161,.T.);
#383=EDGE_CURVE('',#309,#316,#162,.T.);
#384=EDGE_CURVE('',#317,#316,#163,.T.);
#385=EDGE_CURVE('',#317,#318,#264,.T.);
#386=EDGE_CURVE('',#319,#318,#164,.T.);
#387=EDGE_CURVE('',#319,#320,#265,.T.);
#388=EDGE_CURVE('',#321,#320,#165,.T.);
#389=EDGE_CURVE('',#321,#322,#266,.T.);
#390=EDGE_CURVE('',#315,#322,#166,.T.);
#391=EDGE_CURVE('',#317,#308,#167,.T.);
#392=EDGE_CURVE('',#321,#304,#168,.T.);
#393=EDGE_CURVE('',#303,#322,#169,.T.);
#394=EDGE_CURVE('',#305,#320,#170,.T.);
#395=EDGE_CURVE('',#319,#306,#171,.T.);
#396=EDGE_CURVE('',#307,#318,#172,.T.);
#397=EDGE_CURVE('',#295,#323,#173,.T.);
#398=EDGE_CURVE('',#323,#324,#267,.T.);
#399=EDGE_CURVE('',#324,#296,#174,.T.);
#400=EDGE_CURVE('',#325,#302,#175,.T.);
#401=EDGE_CURVE('',#323,#325,#176,.T.);
#402=EDGE_CURVE('',#301,#326,#177,.T.);
#403=EDGE_CURVE('',#326,#325,#268,.T.);
#404=EDGE_CURVE('',#327,#300,#178,.T.);
#405=EDGE_CURVE('',#326,#327,#179,.T.);
#406=EDGE_CURVE('',#299,#328,#180,.T.);
#407=EDGE_CURVE('',#328,#327,#269,.T.);
#408=EDGE_CURVE('',#329,#298,#181,.T.);
#409=EDGE_CURVE('',#328,#329,#182,.T.);
#410=EDGE_CURVE('',#297,#330,#183,.T.);
#411=EDGE_CURVE('',#330,#329,#270,.T.);
#412=EDGE_CURVE('',#331,#331,#271,.T.);
#413=EDGE_CURVE('',#331,#332,#184,.T.);
#414=EDGE_CURVE('',#332,#332,#272,.T.);
#415=EDGE_CURVE('',#333,#333,#273,.T.);
#416=EDGE_CURVE('',#334,#334,#274,.T.);
#417=EDGE_CURVE('',#334,#335,#185,.T.);
#418=EDGE_CURVE('',#335,#335,#275,.T.);
#419=EDGE_CURVE('',#336,#336,#276,.T.);
#420=EDGE_CURVE('',#337,#337,#277,.T.);
#421=EDGE_CURVE('',#337,#338,#186,.T.);
#422=EDGE_CURVE('',#338,#338,#278,.T.);
#423=EDGE_CURVE('',#339,#339,#279,.T.);
#424=EDGE_CURVE('',#340,#340,#280,.T.);
#425=EDGE_CURVE('',#340,#341,#187,.T.);
#426=EDGE_CURVE('',#341,#341,#281,.T.);
#427=EDGE_CURVE('',#342,#342,#282,.T.);
#428=EDGE_CURVE('',#311,#333,#188,.T.);
#429=EDGE_CURVE('',#312,#342,#189,.T.);
#430=EDGE_CURVE('',#313,#336,#190,.T.);
#431=EDGE_CURVE('',#314,#339,#191,.T.);
#432=EDGE_CURVE('',#330,#324,#192,.T.);
#433=ORIENTED_EDGE('',*,*,#343,.F.);
#434=ORIENTED_EDGE('',*,*,#344,.T.);
#435=ORIENTED_EDGE('',*,*,#345,.F.);
#436=ORIENTED_EDGE('',*,*,#344,.F.);
#437=ORIENTED_EDGE('',*,*,#343,.T.);
#438=ORIENTED_EDGE('',*,*,#346,.F.);
#439=ORIENTED_EDGE('',*,*,#347,.T.);
#440=ORIENTED_EDGE('',*,*,#348,.F.);
#441=ORIENTED_EDGE('',*,*,#347,.F.);
#442=ORIENTED_EDGE('',*,*,#346,.T.);
#443=ORIENTED_EDGE('',*,*,#349,.F.);
#444=ORIENTED_EDGE('',*,*,#350,.F.);
#445=ORIENTED_EDGE('',*,*,#351,.T.);
#446=ORIENTED_EDGE('',*,*,#352,.F.);
#447=ORIENTED_EDGE('',*,*,#353,.F.);
#448=ORIENTED_EDGE('',*,*,#354,.F.);
#449=ORIENTED_EDGE('',*,*,#355,.T.);
#450=ORIENTED_EDGE('',*,*,#356,.F.);
#451=ORIENTED_EDGE('',*,*,#355,.F.);
#452=ORIENTED_EDGE('',*,*,#357,.F.);
#453=ORIENTED_EDGE('',*,*,#351,.F.);
#454=ORIENTED_EDGE('',*,*,#358,.F.);
#455=ORIENTED_EDGE('',*,*,#349,.T.);
#456=ORIENTED_EDGE('',*,*,#359,.T.);
#457=ORIENTED_EDGE('',*,*,#360,.F.);
#458=ORIENTED_EDGE('',*,*,#361,.T.);
#459=ORIENTED_EDGE('',*,*,#362,.F.);
#460=ORIENTED_EDGE('',*,*,#363,.T.);
#461=ORIENTED_EDGE('',*,*,#364,.F.);
#462=ORIENTED_EDGE('',*,*,#365,.T.);
#463=ORIENTED_EDGE('',*,*,#366,.F.);
#464=ORIENTED_EDGE('',*,*,#367,.T.);
#465=ORIENTED_EDGE('',*,*,#353,.T.);
#466=ORIENTED_EDGE('',*,*,#368,.T.);
#467=ORIENTED_EDGE('',*,*,#369,.F.);
#468=ORIENTED_EDGE('',*,*,#370,.T.);
#469=ORIENTED_EDGE('',*,*,#371,.F.);
#470=ORIENTED_EDGE('',*,*,#372,.T.);
#471=ORIENTED_EDGE('',*,*,#373,.F.);
#472=ORIENTED_EDGE('',*,*,#374,.T.);
#473=ORIENTED_EDGE('',*,*,#375,.F.);
#474=ORIENTED_EDGE('',*,*,#376,.T.);
#475=ORIENTED_EDGE('',*,*,#377,.T.);
#476=ORIENTED_EDGE('',*,*,#378,.T.);
#477=ORIENTED_EDGE('',*,*,#379,.T.);
#478=ORIENTED_EDGE('',*,*,#380,.T.);
#479=ORIENTED_EDGE('',*,*,#381,.F.);
#480=ORIENTED_EDGE('',*,*,#382,.T.);
#481=ORIENTED_EDGE('',*,*,#375,.T.);
#482=ORIENTED_EDGE('',*,*,#383,.T.);
#483=ORIENTED_EDGE('',*,*,#381,.T.);
#484=ORIENTED_EDGE('',*,*,#384,.F.);
#485=ORIENTED_EDGE('',*,*,#385,.T.);
#486=ORIENTED_EDGE('',*,*,#386,.F.);
#487=ORIENTED_EDGE('',*,*,#387,.T.);
#488=ORIENTED_EDGE('',*,*,#388,.F.);
#489=ORIENTED_EDGE('',*,*,#389,.T.);
#490=ORIENTED_EDGE('',*,*,#390,.F.);
#491=ORIENTED_EDGE('',*,*,#345,.T.);
#492=ORIENTED_EDGE('',*,*,#348,.T.);
#493=ORIENTED_EDGE('',*,*,#383,.F.);
#494=ORIENTED_EDGE('',*,*,#374,.F.);
#495=ORIENTED_EDGE('',*,*,#391,.F.);
#496=ORIENTED_EDGE('',*,*,#384,.T.);
#497=ORIENTED_EDGE('',*,*,#389,.F.);
#498=ORIENTED_EDGE('',*,*,#392,.T.);
#499=ORIENTED_EDGE('',*,*,#369,.T.);
#500=ORIENTED_EDGE('',*,*,#393,.T.);
#501=ORIENTED_EDGE('',*,*,#392,.F.);
#502=ORIENTED_EDGE('',*,*,#388,.T.);
#503=ORIENTED_EDGE('',*,*,#394,.F.);
#504=ORIENTED_EDGE('',*,*,#370,.F.);
#505=ORIENTED_EDGE('',*,*,#387,.F.);
#506=ORIENTED_EDGE('',*,*,#395,.T.);
#507=ORIENTED_EDGE('',*,*,#371,.T.);
#508=ORIENTED_EDGE('',*,*,#394,.T.);
#509=ORIENTED_EDGE('',*,*,#395,.F.);
#510=ORIENTED_EDGE('',*,*,#386,.T.);
#511=ORIENTED_EDGE('',*,*,#396,.F.);
#512=ORIENTED_EDGE('',*,*,#372,.F.);
#513=ORIENTED_EDGE('',*,*,#385,.F.);
#514=ORIENTED_EDGE('',*,*,#391,.T.);
#515=ORIENTED_EDGE('',*,*,#373,.T.);
#516=ORIENTED_EDGE('',*,*,#396,.T.);
#517=ORIENTED_EDGE('',*,*,#360,.T.);
#518=ORIENTED_EDGE('',*,*,#397,.T.);
#519=ORIENTED_EDGE('',*,*,#398,.T.);
#520=ORIENTED_EDGE('',*,*,#399,.T.);
#521=ORIENTED_EDGE('',*,*,#354,.T.);
#522=ORIENTED_EDGE('',*,*,#367,.F.);
#523=ORIENTED_EDGE('',*,*,#400,.F.);
#524=ORIENTED_EDGE('',*,*,#401,.F.);
#525=ORIENTED_EDGE('',*,*,#397,.F.);
#526=ORIENTED_EDGE('',*,*,#359,.F.);
#527=ORIENTED_EDGE('',*,*,#352,.T.);
#528=ORIENTED_EDGE('',*,*,#357,.T.);
#529=ORIENTED_EDGE('',*,*,#366,.T.);
#530=ORIENTED_EDGE('',*,*,#402,.T.);
#531=ORIENTED_EDGE('',*,*,#403,.T.);
#532=ORIENTED_EDGE('',*,*,#400,.T.);
#533=ORIENTED_EDGE('',*,*,#402,.F.);
#534=ORIENTED_EDGE('',*,*,#365,.F.);
#535=ORIENTED_EDGE('',*,*,#404,.F.);
#536=ORIENTED_EDGE('',*,*,#405,.F.);
#537=ORIENTED_EDGE('',*,*,#364,.T.);
#538=ORIENTED_EDGE('',*,*,#406,.T.);
#539=ORIENTED_EDGE('',*,*,#407,.T.);
#540=ORIENTED_EDGE('',*,*,#404,.T.);
#541=ORIENTED_EDGE('',*,*,#406,.F.);
#542=ORIENTED_EDGE('',*,*,#363,.F.);
#543=ORIENTED_EDGE('',*,*,#408,.F.);
#544=ORIENTED_EDGE('',*,*,#409,.F.);
#545=ORIENTED_EDGE('',*,*,#362,.T.);
#546=ORIENTED_EDGE('',*,*,#410,.T.);
#547=ORIENTED_EDGE('',*,*,#411,.T.);
#548=ORIENTED_EDGE('',*,*,#408,.T.);
#549=ORIENTED_EDGE('',*,*,#412,.F.);
#550=ORIENTED_EDGE('',*,*,#413,.T.);
#551=ORIENTED_EDGE('',*,*,#414,.T.);
#552=ORIENTED_EDGE('',*,*,#413,.F.);
#553=ORIENTED_EDGE('',*,*,#414,.F.);
#554=ORIENTED_EDGE('',*,*,#415,.F.);
#555=ORIENTED_EDGE('',*,*,#416,.F.);
#556=ORIENTED_EDGE('',*,*,#417,.T.);
#557=ORIENTED_EDGE('',*,*,#418,.T.);
#558=ORIENTED_EDGE('',*,*,#417,.F.);
#559=ORIENTED_EDGE('',*,*,#418,.F.);
#560=ORIENTED_EDGE('',*,*,#419,.F.);
#561=ORIENTED_EDGE('',*,*,#420,.F.);
#562=ORIENTED_EDGE('',*,*,#421,.T.);
#563=ORIENTED_EDGE('',*,*,#422,.T.);
#564=ORIENTED_EDGE('',*,*,#421,.F.);
#565=ORIENTED_EDGE('',*,*,#422,.F.);
#566=ORIENTED_EDGE('',*,*,#423,.F.);
#567=ORIENTED_EDGE('',*,*,#424,.F.);
#568=ORIENTED_EDGE('',*,*,#425,.T.);
#569=ORIENTED_EDGE('',*,*,#426,.T.);
#570=ORIENTED_EDGE('',*,*,#425,.F.);
#571=ORIENTED_EDGE('',*,*,#426,.F.);
#572=ORIENTED_EDGE('',*,*,#427,.F.);
#573=ORIENTED_EDGE('',*,*,#377,.F.);
#574=ORIENTED_EDGE('',*,*,#428,.T.);
#575=ORIENTED_EDGE('',*,*,#415,.T.);
#576=ORIENTED_EDGE('',*,*,#428,.F.);
#577=ORIENTED_EDGE('',*,*,#378,.F.);
#578=ORIENTED_EDGE('',*,*,#429,.T.);
#579=ORIENTED_EDGE('',*,*,#427,.T.);
#580=ORIENTED_EDGE('',*,*,#429,.F.);
#581=ORIENTED_EDGE('',*,*,#350,.T.);
#582=ORIENTED_EDGE('',*,*,#376,.F.);
#583=ORIENTED_EDGE('',*,*,#382,.F.);
#584=ORIENTED_EDGE('',*,*,#390,.T.);
#585=ORIENTED_EDGE('',*,*,#393,.F.);
#586=ORIENTED_EDGE('',*,*,#368,.F.);
#587=ORIENTED_EDGE('',*,*,#356,.T.);
#588=ORIENTED_EDGE('',*,*,#358,.T.);
#589=ORIENTED_EDGE('',*,*,#379,.F.);
#590=ORIENTED_EDGE('',*,*,#430,.T.);
#591=ORIENTED_EDGE('',*,*,#419,.T.);
#592=ORIENTED_EDGE('',*,*,#430,.F.);
#593=ORIENTED_EDGE('',*,*,#380,.F.);
#594=ORIENTED_EDGE('',*,*,#431,.T.);
#595=ORIENTED_EDGE('',*,*,#423,.T.);
#596=ORIENTED_EDGE('',*,*,#431,.F.);
#597=ORIENTED_EDGE('',*,*,#399,.F.);
#598=ORIENTED_EDGE('',*,*,#432,.F.);
#599=ORIENTED_EDGE('',*,*,#410,.F.);
#600=ORIENTED_EDGE('',*,*,#361,.F.);
#601=ORIENTED_EDGE('',*,*,#398,.F.);
#602=ORIENTED_EDGE('',*,*,#401,.T.);
#603=ORIENTED_EDGE('',*,*,#403,.F.);
#604=ORIENTED_EDGE('',*,*,#405,.T.);
#605=ORIENTED_EDGE('',*,*,#407,.F.);
#606=ORIENTED_EDGE('',*,*,#409,.T.);
#607=ORIENTED_EDGE('',*,*,#411,.F.);
#608=ORIENTED_EDGE('',*,*,#432,.T.);
#609=ORIENTED_EDGE('',*,*,#424,.T.);
#610=ORIENTED_EDGE('',*,*,#420,.T.);
#611=ORIENTED_EDGE('',*,*,#416,.T.);
#612=ORIENTED_EDGE('',*,*,#412,.T.);
#613=CYLINDRICAL_SURFACE('',#683,2.5);
#614=CYLINDRICAL_SURFACE('',#687,2.5);
#615=CYLINDRICAL_SURFACE('',#707,0.5);
#616=CYLINDRICAL_SURFACE('',#714,0.5);
#617=CYLINDRICAL_SURFACE('',#716,0.5);
#618=CYLINDRICAL_SURFACE('',#718,0.5);
#619=CYLINDRICAL_SURFACE('',#719,5.);
#620=CYLINDRICAL_SURFACE('',#722,5.);
#621=CYLINDRICAL_SURFACE('',#725,5.);
#622=CYLINDRICAL_SURFACE('',#728,5.);
#623=CYLINDRICAL_SURFACE('',#730,2.5);
#624=CYLINDRICAL_SURFACE('',#735,2.5);
#625=CYLINDRICAL_SURFACE('',#740,2.5);
#626=CYLINDRICAL_SURFACE('',#745,2.5);
#627=CYLINDRICAL_SURFACE('',#750,1.7);
#628=CYLINDRICAL_SURFACE('',#751,1.7);
#629=CYLINDRICAL_SURFACE('',#753,1.7);
#630=CYLINDRICAL_SURFACE('',#754,1.7);
#631=ADVANCED_FACE('',(#49),#613,.T.);
#632=ADVANCED_FACE('',(#50),#29,.T.);
#633=ADVANCED_FACE('',(#51),#614,.T.);
#634=ADVANCED_FACE('',(#52),#30,.T.);
#635=ADVANCED_FACE('',(#53),#31,.F.);
#636=ADVANCED_FACE('',(#54),#32,.F.);
#637=ADVANCED_FACE('',(#55),#33,.F.);
#638=ADVANCED_FACE('',(#56,#15,#16,#17,#18),#34,.T.);
#639=ADVANCED_FACE('',(#57),#615,.F.);
#640=ADVANCED_FACE('',(#58,#19,#20),#35,.T.);
#641=ADVANCED_FACE('',(#59),#36,.T.);
#642=ADVANCED_FACE('',(#60),#616,.F.);
#643=ADVANCED_FACE('',(#61),#37,.T.);
#644=ADVANCED_FACE('',(#62),#617,.F.);
#645=ADVANCED_FACE('',(#63),#38,.T.);
#646=ADVANCED_FACE('',(#64),#618,.F.);
#647=ADVANCED_FACE('',(#65),#619,.T.);
#648=ADVANCED_FACE('',(#66),#39,.T.);
#649=ADVANCED_FACE('',(#67),#620,.T.);
#650=ADVANCED_FACE('',(#68),#40,.T.);
#651=ADVANCED_FACE('',(#69),#621,.T.);
#652=ADVANCED_FACE('',(#70),#41,.T.);
#653=ADVANCED_FACE('',(#71),#622,.T.);
#654=ADVANCED_FACE('',(#72),#623,.F.);
#655=ADVANCED_FACE('',(#73,#21),#42,.T.);
#656=ADVANCED_FACE('',(#74),#624,.F.);
#657=ADVANCED_FACE('',(#75,#22),#43,.T.);
#658=ADVANCED_FACE('',(#76),#625,.F.);
#659=ADVANCED_FACE('',(#77,#23),#44,.T.);
#660=ADVANCED_FACE('',(#78),#626,.F.);
#661=ADVANCED_FACE('',(#79,#24),#45,.T.);
#662=ADVANCED_FACE('',(#80),#627,.F.);
#663=ADVANCED_FACE('',(#81),#628,.F.);
#664=ADVANCED_FACE('',(#82),#46,.T.);
#665=ADVANCED_FACE('',(#83),#629,.F.);
#666=ADVANCED_FACE('',(#84),#630,.F.);
#667=ADVANCED_FACE('',(#85),#47,.T.);
#668=ADVANCED_FACE('',(#86,#25,#26,#27,#28),#48,.F.);
#669=CLOSED_SHELL('',(#631,#632,#633,#634,#635,#636,#637,#638,#639,#640,
#641,#642,#643,#644,#645,#646,#647,#648,#649,#650,#651,#652,#653,#654,#655,
#656,#657,#658,#659,#660,#661,#662,#663,#664,#665,#666,#667,#668));
#670=DERIVED_UNIT_ELEMENT(#672,1.);
#671=DERIVED_UNIT_ELEMENT(#1155,-3.);
#672=(
MASS_UNIT()
NAMED_UNIT(*)
SI_UNIT(.KILO.,.GRAM.)
);
#673=DERIVED_UNIT((#670,#671));
#674=MEASURE_REPRESENTATION_ITEM('density measure',
POSITIVE_RATIO_MEASURE(7850.),#673);
#675=PROPERTY_DEFINITION_REPRESENTATION(#680,#677);
#676=PROPERTY_DEFINITION_REPRESENTATION(#681,#678);
#677=REPRESENTATION('material name',(#679),#1152);
#678=REPRESENTATION('density',(#674),#1152);
#679=DESCRIPTIVE_REPRESENTATION_ITEM('Steel','Steel');
#680=PROPERTY_DEFINITION('material property','material name',#1162);
#681=PROPERTY_DEFINITION('material property','density of part',#1162);
#682=AXIS2_PLACEMENT_3D('',#961,#757,#758);
#683=AXIS2_PLACEMENT_3D('',#962,#759,#760);
#684=AXIS2_PLACEMENT_3D('',#964,#761,#762);
#685=AXIS2_PLACEMENT_3D('',#967,#764,#765);
#686=AXIS2_PLACEMENT_3D('',#968,#766,#767);
#687=AXIS2_PLACEMENT_3D('',#969,#768,#769);
#688=AXIS2_PLACEMENT_3D('',#971,#770,#771);
#689=AXIS2_PLACEMENT_3D('',#974,#773,#774);
#690=AXIS2_PLACEMENT_3D('',#975,#775,#776);
#691=AXIS2_PLACEMENT_3D('',#976,#777,#778);
#692=AXIS2_PLACEMENT_3D('',#985,#783,#784);
#693=AXIS2_PLACEMENT_3D('',#994,#789,#790);
#694=AXIS2_PLACEMENT_3D('',#997,#793,#794);
#695=AXIS2_PLACEMENT_3D('',#1001,#796,#797);
#696=AXIS2_PLACEMENT_3D('',#1005,#799,#800);
#697=AXIS2_PLACEMENT_3D('',#1009,#802,#803);
#698=AXIS2_PLACEMENT_3D('',#1013,#805,#806);
#699=AXIS2_PLACEMENT_3D('',#1018,#809,#810);
#700=AXIS2_PLACEMENT_3D('',#1022,#812,#813);
#701=AXIS2_PLACEMENT_3D('',#1026,#815,#816);
#702=AXIS2_PLACEMENT_3D('',#1030,#818,#819);
#703=AXIS2_PLACEMENT_3D('',#1033,#821,#822);
#704=AXIS2_PLACEMENT_3D('',#1035,#823,#824);
#705=AXIS2_PLACEMENT_3D('',#1037,#825,#826);
#706=AXIS2_PLACEMENT_3D('',#1039,#827,#828);
#707=AXIS2_PLACEMENT_3D('',#1040,#829,#830);
#708=AXIS2_PLACEMENT_3D('',#1043,#831,#832);
#709=AXIS2_PLACEMENT_3D('',#1046,#835,#836);
#710=AXIS2_PLACEMENT_3D('',#1050,#838,#839);
#711=AXIS2_PLACEMENT_3D('',#1054,#841,#842);
#712=AXIS2_PLACEMENT_3D('',#1058,#844,#845);
#713=AXIS2_PLACEMENT_3D('',#1060,#847,#848);
#714=AXIS2_PLACEMENT_3D('',#1062,#850,#851);
#715=AXIS2_PLACEMENT_3D('',#1065,#854,#855);
#716=AXIS2_PLACEMENT_3D('',#1067,#857,#858);
#717=AXIS2_PLACEMENT_3D('',#1069,#860,#861);
#718=AXIS2_PLACEMENT_3D('',#1071,#863,#864);
#719=AXIS2_PLACEMENT_3D('',#1072,#865,#866);
#720=AXIS2_PLACEMENT_3D('',#1076,#868,#869);
#721=AXIS2_PLACEMENT_3D('',#1078,#871,#872);
#722=AXIS2_PLACEMENT_3D('',#1082,#875,#876);
#723=AXIS2_PLACEMENT_3D('',#1085,#878,#879);
#724=AXIS2_PLACEMENT_3D('',#1086,#880,#881);
#725=AXIS2_PLACEMENT_3D('',#1090,#884,#885);
#726=AXIS2_PLACEMENT_3D('',#1093,#887,#888);
#727=AXIS2_PLACEMENT_3D('',#1094,#889,#890);
#728=AXIS2_PLACEMENT_3D('',#1098,#893,#894);
#729=AXIS2_PLACEMENT_3D('',#1101,#896,#897);
#730=AXIS2_PLACEMENT_3D('',#1102,#898,#899);
#731=AXIS2_PLACEMENT_3D('',#1104,#900,#901);
#732=AXIS2_PLACEMENT_3D('',#1107,#903,#904);
#733=AXIS2_PLACEMENT_3D('',#1108,#905,#906);
#734=AXIS2_PLACEMENT_3D('',#1110,#907,#908);
#735=AXIS2_PLACEMENT_3D('',#1111,#909,#910);
#736=AXIS2_PLACEMENT_3D('',#1113,#911,#912);
#737=AXIS2_PLACEMENT_3D('',#1116,#914,#915);
#738=AXIS2_PLACEMENT_3D('',#1117,#916,#917);
#739=AXIS2_PLACEMENT_3D('',#1119,#918,#919);
#740=AXIS2_PLACEMENT_3D('',#1120,#920,#921);
#741=AXIS2_PLACEMENT_3D('',#1122,#922,#923);
#742=AXIS2_PLACEMENT_3D('',#1125,#925,#926);
#743=AXIS2_PLACEMENT_3D('',#1126,#927,#928);
#744=AXIS2_PLACEMENT_3D('',#1128,#929,#930);
#745=AXIS2_PLACEMENT_3D('',#1129,#931,#932);
#746=AXIS2_PLACEMENT_3D('',#1131,#933,#934);
#747=AXIS2_PLACEMENT_3D('',#1134,#936,#937);
#748=AXIS2_PLACEMENT_3D('',#1135,#938,#939);
#749=AXIS2_PLACEMENT_3D('',#1137,#940,#941);
#750=AXIS2_PLACEMENT_3D('',#1138,#942,#943);
#751=AXIS2_PLACEMENT_3D('',#1140,#945,#946);
#752=AXIS2_PLACEMENT_3D('',#1142,#948,#949);
#753=AXIS2_PLACEMENT_3D('',#1143,#950,#951);
#754=AXIS2_PLACEMENT_3D('',#1145,#953,#954);
#755=AXIS2_PLACEMENT_3D('',#1147,#956,#957);
#756=AXIS2_PLACEMENT_3D('',#1149,#959,#960);
#757=DIRECTION('axis',(0.,0.,1.));
#758=DIRECTION('refdir',(1.,0.,0.));
#759=DIRECTION('center_axis',(0.,1.,0.));
#760=DIRECTION('ref_axis',(-1.,0.,0.));
#761=DIRECTION('center_axis',(0.,1.,0.));
#762=DIRECTION('ref_axis',(-1.,0.,0.));
#763=DIRECTION('',(0.,-1.,0.));
#764=DIRECTION('center_axis',(0.,-1.,0.));
#765=DIRECTION('ref_axis',(-1.,0.,0.));
#766=DIRECTION('center_axis',(0.,1.,0.));
#767=DIRECTION('ref_axis',(-1.,0.,0.));
#768=DIRECTION('center_axis',(0.,1.,0.));
#769=DIRECTION('ref_axis',(-1.,0.,0.));
#770=DIRECTION('center_axis',(0.,1.,0.));
#771=DIRECTION('ref_axis',(-1.,0.,0.));
#772=DIRECTION('',(0.,-1.,0.));
#773=DIRECTION('center_axis',(0.,-1.,0.));
#774=DIRECTION('ref_axis',(-1.,0.,0.));
#775=DIRECTION('center_axis',(0.,1.,0.));
#776=DIRECTION('ref_axis',(-1.,0.,0.));
#777=DIRECTION('center_axis',(0.0109993345603878,0.,-0.999939505489821));
#778=DIRECTION('ref_axis',(0.999939505489822,0.,0.0109993345603878));
#779=DIRECTION('',(0.999939505489822,0.,0.0109993345603878));
#780=DIRECTION('',(0.,1.,0.));
#781=DIRECTION('',(0.999939505489822,0.,0.0109993345603878));
#782=DIRECTION('',(0.,-1.,0.));
#783=DIRECTION('center_axis',(-2.22044604925032E-16,0.,1.));
#784=DIRECTION('ref_axis',(-1.,0.,-2.22044604925032E-16));
#785=DIRECTION('',(-1.,0.,-2.22044604925032E-16));
#786=DIRECTION('',(0.,1.,0.));
#787=DIRECTION('',(-1.,0.,-2.22044604925032E-16));
#788=DIRECTION('',(0.,-1.,0.));
#789=DIRECTION('center_axis',(0.,-1.,0.));
#790=DIRECTION('ref_axis',(0.,0.,-1.));
#791=DIRECTION('',(0.,0.,1.));
#792=DIRECTION('',(-2.04390385387211E-16,0.,-1.));
#793=DIRECTION('center_axis',(0.,1.,0.));
#794=DIRECTION('ref_axis',(1.,0.,0.));
#795=DIRECTION('',(0.,0.,-1.));
#796=DIRECTION('center_axis',(0.,-1.,0.));
#797=DIRECTION('ref_axis',(0.707106781186547,0.,-0.707106781186547));
#798=DIRECTION('',(-1.,0.,-8.30772069684899E-17));
#799=DIRECTION('center_axis',(0.,-1.,0.));
#800=DIRECTION('ref_axis',(-0.707106781186547,0.,-0.707106781186547));
#801=DIRECTION('',(0.,0.,1.));
#802=DIRECTION('center_axis',(0.,-1.,0.));
#803=DIRECTION('ref_axis',(-0.707106781186547,0.,0.707106781186547));
#804=DIRECTION('',(1.,0.,8.30772069684899E-17));
#805=DIRECTION('center_axis',(0.,-1.,0.));
#806=DIRECTION('ref_axis',(0.707106781186547,0.,0.707106781186547));
#807=DIRECTION('',(0.,0.,-1.));
#808=DIRECTION('',(2.04390385387211E-16,0.,1.));
#809=DIRECTION('center_axis',(0.,1.,0.));
#810=DIRECTION('ref_axis',(0.707106781186548,0.,0.707106781186548));
#811=DIRECTION('',(-1.,0.,4.08780770774422E-16));
#812=DIRECTION('center_axis',(0.,1.,0.));
#813=DIRECTION('ref_axis',(-0.707106781186544,0.,0.707106781186551));
#814=DIRECTION('',(-2.55487981734014E-16,0.,-1.));
#815=DIRECTION('center_axis',(0.,1.,0.));
#816=DIRECTION('ref_axis',(-0.707106781186544,0.,-0.707106781186551));
#817=DIRECTION('',(1.,0.,-2.04390385387211E-16));
#818=DIRECTION('center_axis',(0.,1.,0.));
#819=DIRECTION('ref_axis',(0.707106781186548,0.,-0.707106781186548));
#820=DIRECTION('',(2.04390385387211E-16,0.,1.));
#821=DIRECTION('center_axis',(0.,-1.,0.));
#822=DIRECTION('ref_axis',(1.,0.,0.));
#823=DIRECTION('center_axis',(0.,-1.,0.));
#824=DIRECTION('ref_axis',(1.,0.,0.));
#825=DIRECTION('center_axis',(0.,-1.,0.));
#826=DIRECTION('ref_axis',(1.,0.,0.));
#827=DIRECTION('center_axis',(0.,-1.,0.));
#828=DIRECTION('ref_axis',(1.,0.,0.));
#829=DIRECTION('center_axis',(0.,1.,0.));
#830=DIRECTION('ref_axis',(0.707106781186548,0.,-0.707106781186548));
#831=DIRECTION('center_axis',(0.,1.,0.));
#832=DIRECTION('ref_axis',(0.707106781186548,0.,-0.707106781186548));
#833=DIRECTION('',(0.,1.,0.));
#834=DIRECTION('',(0.,-1.,0.));
#835=DIRECTION('center_axis',(0.,1.,0.));
#836=DIRECTION('ref_axis',(0.,0.,1.));
#837=DIRECTION('',(1.,0.,-2.04390385387211E-16));
#838=DIRECTION('center_axis',(0.,1.,0.));
#839=DIRECTION('ref_axis',(-0.707106781186544,0.,-0.707106781186551));
#840=DIRECTION('',(-2.55487981734014E-16,0.,-1.));
#841=DIRECTION('center_axis',(0.,1.,0.));
#842=DIRECTION('ref_axis',(-0.707106781186544,0.,0.707106781186551));
#843=DIRECTION('',(-1.,0.,4.08780770774422E-16));
#844=DIRECTION('center_axis',(0.,1.,0.));
#845=DIRECTION('ref_axis',(0.707106781186548,0.,0.707106781186548));
#846=DIRECTION('',(2.04390385387211E-16,0.,1.));
#847=DIRECTION('center_axis',(2.04390385387211E-16,0.,1.));
#848=DIRECTION('ref_axis',(1.,0.,-2.04390385387211E-16));
#849=DIRECTION('',(0.,1.,0.));
#850=DIRECTION('center_axis',(0.,1.,0.));
#851=DIRECTION('ref_axis',(0.707106781186548,0.,0.707106781186548));
#852=DIRECTION('',(0.,1.,0.));
#853=DIRECTION('',(0.,-1.,0.));
#854=DIRECTION('center_axis',(-4.08780770774422E-16,0.,-1.));
#855=DIRECTION('ref_axis',(-1.,0.,4.08780770774422E-16));
#856=DIRECTION('',(0.,-1.,0.));
#857=DIRECTION('center_axis',(0.,1.,0.));
#858=DIRECTION('ref_axis',(-0.707106781186544,0.,0.707106781186551));
#859=DIRECTION('',(0.,1.,0.));
#860=DIRECTION('center_axis',(1.,0.,-2.55487981734014E-16));
#861=DIRECTION('ref_axis',(-2.55487981734014E-16,0.,-1.));
#862=DIRECTION('',(0.,-1.,0.));
#863=DIRECTION('center_axis',(0.,1.,0.));
#864=DIRECTION('ref_axis',(-0.707106781186544,0.,-0.707106781186551));
#865=DIRECTION('center_axis',(0.,1.,0.));
#866=DIRECTION('ref_axis',(0.707106781186547,0.,-0.707106781186547));
#867=DIRECTION('',(0.,-1.,0.));
#868=DIRECTION('center_axis',(0.,1.,0.));
#869=DIRECTION('ref_axis',(0.707106781186547,0.,-0.707106781186547));
#870=DIRECTION('',(0.,1.,0.));
#871=DIRECTION('center_axis',(1.,0.,0.));
#872=DIRECTION('ref_axis',(0.,0.,-1.));
#873=DIRECTION('',(0.,1.,0.));
#874=DIRECTION('',(0.,0.,1.));
#875=DIRECTION('center_axis',(0.,1.,0.));
#876=DIRECTION('ref_axis',(0.707106781186547,0.,0.707106781186547));
#877=DIRECTION('',(0.,-1.,0.));
#878=DIRECTION('center_axis',(0.,1.,0.));
#879=DIRECTION('ref_axis',(0.707106781186547,0.,0.707106781186547));
#880=DIRECTION('center_axis',(-8.30772069684899E-17,0.,1.));
#881=DIRECTION('ref_axis',(1.,0.,8.30772069684899E-17));
#882=DIRECTION('',(0.,1.,0.));
#883=DIRECTION('',(-1.,0.,-8.30772069684899E-17));
#884=DIRECTION('center_axis',(0.,1.,0.));
#885=DIRECTION('ref_axis',(-0.707106781186547,0.,0.707106781186547));
#886=DIRECTION('',(0.,-1.,0.));
#887=DIRECTION('center_axis',(0.,1.,0.));
#888=DIRECTION('ref_axis',(-0.707106781186547,0.,0.707106781186547));
#889=DIRECTION('center_axis',(-1.,0.,0.));
#890=DIRECTION('ref_axis',(0.,0.,1.));
#891=DIRECTION('',(0.,1.,0.));
#892=DIRECTION('',(0.,0.,-1.));
#893=DIRECTION('center_axis',(0.,1.,0.));
#894=DIRECTION('ref_axis',(-0.707106781186547,0.,-0.707106781186547));
#895=DIRECTION('',(0.,-1.,0.));
#896=DIRECTION('center_axis',(0.,1.,0.));
#897=DIRECTION('ref_axis',(-0.707106781186547,0.,-0.707106781186547));
#898=DIRECTION('center_axis',(0.,1.,0.));
#899=DIRECTION('ref_axis',(1.,0.,0.));
#900=DIRECTION('center_axis',(0.,1.,0.));
#901=DIRECTION('ref_axis',(1.,0.,0.));
#902=DIRECTION('',(0.,1.,0.));
#903=DIRECTION('center_axis',(0.,1.,0.));
#904=DIRECTION('ref_axis',(1.,0.,0.));
#905=DIRECTION('center_axis',(0.,-1.,0.));
#906=DIRECTION('ref_axis',(1.,0.,0.));
#907=DIRECTION('center_axis',(0.,-1.,0.));
#908=DIRECTION('ref_axis',(1.,0.,0.));
#909=DIRECTION('center_axis',(0.,1.,0.));
#910=DIRECTION('ref_axis',(1.,0.,0.));
#911=DIRECTION('center_axis',(0.,1.,0.));
#912=DIRECTION('ref_axis',(1.,0.,0.));
#913=DIRECTION('',(0.,1.,0.));
#914=DIRECTION('center_axis',(0.,1.,0.));
#915=DIRECTION('ref_axis',(1.,0.,0.));
#916=DIRECTION('center_axis',(0.,-1.,0.));
#917=DIRECTION('ref_axis',(1.,0.,0.));
#918=DIRECTION('center_axis',(0.,-1.,0.));
#919=DIRECTION('ref_axis',(1.,0.,0.));
#920=DIRECTION('center_axis',(0.,1.,0.));
#921=DIRECTION('ref_axis',(1.,0.,0.));
#922=DIRECTION('center_axis',(0.,1.,0.));
#923=DIRECTION('ref_axis',(1.,0.,0.));
#924=DIRECTION('',(0.,1.,0.));
#925=DIRECTION('center_axis',(0.,1.,0.));
#926=DIRECTION('ref_axis',(1.,0.,0.));
#927=DIRECTION('center_axis',(0.,-1.,0.));
#928=DIRECTION('ref_axis',(1.,0.,0.));
#929=DIRECTION('center_axis',(0.,-1.,0.));
#930=DIRECTION('ref_axis',(1.,0.,0.));
#931=DIRECTION('center_axis',(0.,1.,0.));
#932=DIRECTION('ref_axis',(1.,0.,0.));
#933=DIRECTION('center_axis',(0.,1.,0.));
#934=DIRECTION('ref_axis',(1.,0.,0.));
#935=DIRECTION('',(0.,1.,0.));
#936=DIRECTION('center_axis',(0.,1.,0.));
#937=DIRECTION('ref_axis',(1.,0.,0.));
#938=DIRECTION('center_axis',(0.,-1.,0.));
#939=DIRECTION('ref_axis',(1.,0.,0.));
#940=DIRECTION('center_axis',(0.,-1.,0.));
#941=DIRECTION('ref_axis',(1.,0.,0.));
#942=DIRECTION('center_axis',(0.,1.,0.));
#943=DIRECTION('ref_axis',(1.,0.,0.));
#944=DIRECTION('',(0.,-1.,0.));
#945=DIRECTION('center_axis',(0.,1.,0.));
#946=DIRECTION('ref_axis',(1.,0.,0.));
#947=DIRECTION('',(0.,-1.,0.));
#948=DIRECTION('center_axis',(-1.,0.,2.04390385387211E-16));
#949=DIRECTION('ref_axis',(2.04390385387211E-16,0.,1.));
#950=DIRECTION('center_axis',(0.,1.,0.));
#951=DIRECTION('ref_axis',(1.,0.,0.));
#952=DIRECTION('',(0.,-1.,0.));
#953=DIRECTION('center_axis',(0.,1.,0.));
#954=DIRECTION('ref_axis',(1.,0.,0.));
#955=DIRECTION('',(0.,-1.,0.));
#956=DIRECTION('center_axis',(8.30772069684899E-17,0.,-1.));
#957=DIRECTION('ref_axis',(-1.,0.,-8.30772069684899E-17));
#958=DIRECTION('',(1.,0.,8.30772069684899E-17));
#959=DIRECTION('center_axis',(0.,1.,0.));
#960=DIRECTION('ref_axis',(1.,0.,0.));
#961=CARTESIAN_POINT('',(0.,0.,0.));
#962=CARTESIAN_POINT('Origin',(14.2108070468235,3.,-39.2486053376752));
#963=CARTESIAN_POINT('',(16.7108070468235,7.,-39.2486053376752));
#964=CARTESIAN_POINT('Origin',(14.2108070468235,7.,-39.2486053376752));
#965=CARTESIAN_POINT('',(16.7108070468235,3.,-39.2486053376752));
#966=CARTESIAN_POINT('',(16.7108070468235,3.,-39.2486053376752));
#967=CARTESIAN_POINT('Origin',(14.2108070468235,3.,-39.2486053376752));
#968=CARTESIAN_POINT('Origin',(14.2108070468235,7.,-39.2486053376752));
#969=CARTESIAN_POINT('Origin',(14.2086491221625,3.,39.2464417999833));
#970=CARTESIAN_POINT('',(16.7086491221625,7.,39.2464417999833));
#971=CARTESIAN_POINT('Origin',(14.2086491221625,7.,39.2464417999833));
#972=CARTESIAN_POINT('',(16.7086491221625,3.,39.2464417999833));
#973=CARTESIAN_POINT('',(16.7086491221625,3.,39.2464417999833));
#974=CARTESIAN_POINT('Origin',(14.2086491221625,3.,39.2464417999833));
#975=CARTESIAN_POINT('Origin',(14.2086491221625,7.,39.2464417999833));
#976=CARTESIAN_POINT('Origin',(96.91,15.87,-0.109999999999988));
#977=CARTESIAN_POINT('',(96.91,15.87,-0.109999999999988));
#978=CARTESIAN_POINT('',(106.91,15.87,8.88178419700125E-15));
#979=CARTESIAN_POINT('',(75.18573363623,15.87,-0.348966930001452));
#980=CARTESIAN_POINT('',(96.91,5.5,-0.109999999999988));
#981=CARTESIAN_POINT('',(96.91,7.935,-0.109999999999983));
#982=CARTESIAN_POINT('',(106.91,5.5,8.88178419700125E-15));
#983=CARTESIAN_POINT('',(106.91,5.5,8.88178419700125E-15));
#984=CARTESIAN_POINT('',(106.91,7.935,4.04190569902596E-15));
#985=CARTESIAN_POINT('Origin',(106.91,15.87,18.39));
#986=CARTESIAN_POINT('',(106.91,15.87,18.39));
#987=CARTESIAN_POINT('',(96.91,15.87,18.39));
#988=CARTESIAN_POINT('',(80.1825,15.87,18.39));
#989=CARTESIAN_POINT('',(106.91,5.5,18.39));
#990=CARTESIAN_POINT('',(106.91,7.935,18.39));
#991=CARTESIAN_POINT('',(96.91,5.5,18.39));
#992=CARTESIAN_POINT('',(96.91,5.5,18.39));
#993=CARTESIAN_POINT('',(96.91,7.935,18.39));
#994=CARTESIAN_POINT('Origin',(101.91,5.5,9.14000000000001));
#995=CARTESIAN_POINT('',(106.91,5.5,31.2975));
#996=CARTESIAN_POINT('',(96.91,5.5,-17.1574660015188));
#997=CARTESIAN_POINT('Origin',(53.455,15.87,0.));
#998=CARTESIAN_POINT('',(106.91,15.87,-48.455));
#999=CARTESIAN_POINT('',(106.91,15.87,-53.455));
#1000=CARTESIAN_POINT('',(101.91,15.87,-53.455));
#1001=CARTESIAN_POINT('Origin',(101.91,15.87,-48.455));
#1002=CARTESIAN_POINT('',(5.,15.87,-53.455));
#1003=CARTESIAN_POINT('',(0.,15.87,-53.455));
#1004=CARTESIAN_POINT('',(0.,15.87,-48.455));
#1005=CARTESIAN_POINT('Origin',(5.,15.87,-48.455));
#1006=CARTESIAN_POINT('',(0.,15.87,48.455));
#1007=CARTESIAN_POINT('',(0.,15.87,53.455));
#1008=CARTESIAN_POINT('',(5.,15.87,53.455));
#1009=CARTESIAN_POINT('Origin',(5.,15.87,48.455));
#1010=CARTESIAN_POINT('',(101.91,15.87,53.455));
#1011=CARTESIAN_POINT('',(106.91,15.87,53.455));
#1012=CARTESIAN_POINT('',(106.91,15.87,48.455));
#1013=CARTESIAN_POINT('Origin',(101.91,15.87,48.455));
#1014=CARTESIAN_POINT('',(106.91,15.87,-53.455));
#1015=CARTESIAN_POINT('',(96.91,15.87,42.9550679969624));
#1016=CARTESIAN_POINT('',(96.91,15.87,-43.4549320030376));
#1017=CARTESIAN_POINT('',(96.41,15.87,43.4550679969624));
#1018=CARTESIAN_POINT('Origin',(96.41,15.87,42.9550679969624));
#1019=CARTESIAN_POINT('',(10.5,15.87,43.4550679969624));
#1020=CARTESIAN_POINT('',(10.,15.87,43.4550679969624));
#1021=CARTESIAN_POINT('',(10.,15.87,42.9550679969625));
#1022=CARTESIAN_POINT('Origin',(10.5,15.87,42.9550679969624));
#1023=CARTESIAN_POINT('',(10.,15.87,-42.9549320030376));
#1024=CARTESIAN_POINT('',(10.,15.87,-43.4549320030376));
#1025=CARTESIAN_POINT('',(10.5,15.87,-43.4549320030376));
#1026=CARTESIAN_POINT('Origin',(10.5,15.87,-42.9549320030376));
#1027=CARTESIAN_POINT('',(96.41,15.87,-43.4549320030376));
#1028=CARTESIAN_POINT('',(10.,15.87,-43.4549320030376));
#1029=CARTESIAN_POINT('',(96.91,15.87,-42.9549320030376));
#1030=CARTESIAN_POINT('Origin',(96.41,15.87,-42.9549320030376));
#1031=CARTESIAN_POINT('',(96.91,15.87,-43.4549320030376));
#1032=CARTESIAN_POINT('',(100.21004795023,15.87,48.4550479502299));
#1033=CARTESIAN_POINT('Origin',(101.91004795023,15.87,48.4550479502299));
#1034=CARTESIAN_POINT('',(3.2965945537163,15.87,-48.4516927072413));
#1035=CARTESIAN_POINT('Origin',(4.9965945537163,15.87,-48.4516927072413));
#1036=CARTESIAN_POINT('',(100.20811070634,15.87,-48.4569859450007));
#1037=CARTESIAN_POINT('Origin',(101.90811070634,15.87,-48.4569859450007));
#1038=CARTESIAN_POINT('',(3.29996904887657,15.87,48.4550649493942));
#1039=CARTESIAN_POINT('Origin',(4.99996904887657,15.87,48.4550649493942));
#1040=CARTESIAN_POINT('Origin',(96.41,0.,-42.9549320030376));
#1041=CARTESIAN_POINT('',(96.91,3.,-42.9549320030376));
#1042=CARTESIAN_POINT('',(96.41,3.,-43.4549320030376));
#1043=CARTESIAN_POINT('Origin',(96.41,3.,-42.9549320030376));
#1044=CARTESIAN_POINT('',(96.91,0.,-42.9549320030376));
#1045=CARTESIAN_POINT('',(96.41,0.,-43.4549320030376));
#1046=CARTESIAN_POINT('Origin',(53.455,3.,6.79969624339805E-5));
#1047=CARTESIAN_POINT('',(10.5,3.,-43.4549320030376));
#1048=CARTESIAN_POINT('',(31.7275,3.,-43.4549320030376));
#1049=CARTESIAN_POINT('',(10.,3.,-42.9549320030376));
#1050=CARTESIAN_POINT('Origin',(10.5,3.,-42.9549320030376));
#1051=CARTESIAN_POINT('',(10.,3.,42.9550679969624));
#1052=CARTESIAN_POINT('',(10.,3.,21.7275679969624));
#1053=CARTESIAN_POINT('',(10.5,3.,43.4550679969624));
#1054=CARTESIAN_POINT('Origin',(10.5,3.,42.9550679969624));
#1055=CARTESIAN_POINT('',(96.41,3.,43.4550679969624));
#1056=CARTESIAN_POINT('',(75.1825,3.,43.4550679969624));
#1057=CARTESIAN_POINT('',(96.91,3.,42.9550679969624));
#1058=CARTESIAN_POINT('Origin',(96.41,3.,42.9550679969624));
#1059=CARTESIAN_POINT('',(96.91,3.,-21.7274320030376));
#1060=CARTESIAN_POINT('Origin',(10.,0.,-43.4549320030376));
#1061=CARTESIAN_POINT('',(10.5,0.,-43.4549320030376));
#1062=CARTESIAN_POINT('Origin',(96.41,0.,42.9550679969624));
#1063=CARTESIAN_POINT('',(96.41,0.,43.4550679969624));
#1064=CARTESIAN_POINT('',(96.91,0.,42.9550679969624));
#1065=CARTESIAN_POINT('Origin',(96.91,0.,43.4550679969624));
#1066=CARTESIAN_POINT('',(10.5,0.,43.4550679969624));
#1067=CARTESIAN_POINT('Origin',(10.5,0.,42.9550679969624));
#1068=CARTESIAN_POINT('',(10.,0.,42.9550679969624));
#1069=CARTESIAN_POINT('Origin',(10.,0.,43.4550679969624));
#1070=CARTESIAN_POINT('',(10.,0.,-42.9549320030376));
#1071=CARTESIAN_POINT('Origin',(10.5,0.,-42.9549320030376));
#1072=CARTESIAN_POINT('Origin',(101.91,0.,-48.455));
#1073=CARTESIAN_POINT('',(106.91,0.,-48.455));
#1074=CARTESIAN_POINT('',(106.91,0.,-48.455));
#1075=CARTESIAN_POINT('',(101.91,0.,-53.455));
#1076=CARTESIAN_POINT('Origin',(101.91,0.,-48.455));
#1077=CARTESIAN_POINT('',(101.91,0.,-53.455));
#1078=CARTESIAN_POINT('Origin',(106.91,0.,53.455));
#1079=CARTESIAN_POINT('',(106.91,0.,48.455));
#1080=CARTESIAN_POINT('',(106.91,0.,48.455));
#1081=CARTESIAN_POINT('',(106.91,0.,-53.455));
#1082=CARTESIAN_POINT('Origin',(101.91,0.,48.455));
#1083=CARTESIAN_POINT('',(101.91,0.,53.455));
#1084=CARTESIAN_POINT('',(101.91,0.,53.455));
#1085=CARTESIAN_POINT('Origin',(101.91,0.,48.455));
#1086=CARTESIAN_POINT('Origin',(0.,0.,53.455));
#1087=CARTESIAN_POINT('',(5.,0.,53.455));
#1088=CARTESIAN_POINT('',(5.,0.,53.455));
#1089=CARTESIAN_POINT('',(106.91,0.,53.455));
#1090=CARTESIAN_POINT('Origin',(5.,0.,48.455));
#1091=CARTESIAN_POINT('',(0.,0.,48.455));
#1092=CARTESIAN_POINT('',(0.,0.,48.455));
#1093=CARTESIAN_POINT('Origin',(5.,0.,48.455));
#1094=CARTESIAN_POINT('Origin',(0.,0.,-53.455));
#1095=CARTESIAN_POINT('',(0.,0.,-48.455));
#1096=CARTESIAN_POINT('',(0.,0.,-48.455));
#1097=CARTESIAN_POINT('',(0.,0.,53.455));
#1098=CARTESIAN_POINT('Origin',(5.,0.,-48.455));
#1099=CARTESIAN_POINT('',(5.,0.,-53.455));
#1100=CARTESIAN_POINT('',(5.,0.,-53.455));
#1101=CARTESIAN_POINT('Origin',(5.,0.,-48.455));
#1102=CARTESIAN_POINT('Origin',(101.91004795023,0.,48.4550479502299));
#1103=CARTESIAN_POINT('',(99.4100479502299,0.,48.4550479502299));
#1104=CARTESIAN_POINT('Origin',(101.91004795023,0.,48.4550479502299));
#1105=CARTESIAN_POINT('',(99.4100479502299,13.,48.4550479502299));
#1106=CARTESIAN_POINT('',(99.4100479502299,0.,48.4550479502299));
#1107=CARTESIAN_POINT('Origin',(101.91004795023,13.,48.4550479502299));
#1108=CARTESIAN_POINT('Origin',(101.91004795023,13.,48.4550479502299));
#1109=CARTESIAN_POINT('',(100.21004795023,13.,48.4550479502299));
#1110=CARTESIAN_POINT('Origin',(101.91004795023,13.,48.4550479502299));
#1111=CARTESIAN_POINT('Origin',(101.90811070634,0.,-48.4569859450007));
#1112=CARTESIAN_POINT('',(99.4081107063401,0.,-48.4569859450007));
#1113=CARTESIAN_POINT('Origin',(101.90811070634,0.,-48.4569859450007));
#1114=CARTESIAN_POINT('',(99.4081107063401,13.,-48.4569859450007));
#1115=CARTESIAN_POINT('',(99.4081107063401,0.,-48.4569859450007));
#1116=CARTESIAN_POINT('Origin',(101.90811070634,13.,-48.4569859450007));
#1117=CARTESIAN_POINT('Origin',(101.90811070634,13.,-48.4569859450007));
#1118=CARTESIAN_POINT('',(100.20811070634,13.,-48.4569859450007));
#1119=CARTESIAN_POINT('Origin',(101.90811070634,13.,-48.4569859450007));
#1120=CARTESIAN_POINT('Origin',(4.99996904887657,0.,48.4550649493942));
#1121=CARTESIAN_POINT('',(2.49996904887657,0.,48.4550649493942));
#1122=CARTESIAN_POINT('Origin',(4.99996904887657,0.,48.4550649493942));
#1123=CARTESIAN_POINT('',(2.49996904887657,13.,48.4550649493942));
#1124=CARTESIAN_POINT('',(2.49996904887657,0.,48.4550649493942));
#1125=CARTESIAN_POINT('Origin',(4.99996904887657,13.,48.4550649493942));
#1126=CARTESIAN_POINT('Origin',(4.99996904887657,13.,48.4550649493942));
#1127=CARTESIAN_POINT('',(3.29996904887657,13.,48.4550649493942));
#1128=CARTESIAN_POINT('Origin',(4.99996904887657,13.,48.4550649493942));
#1129=CARTESIAN_POINT('Origin',(4.9965945537163,0.,-48.4516927072413));
#1130=CARTESIAN_POINT('',(2.49659455371629,0.,-48.4516927072413));
#1131=CARTESIAN_POINT('Origin',(4.9965945537163,0.,-48.4516927072413));
#1132=CARTESIAN_POINT('',(2.49659455371629,13.,-48.4516927072413));
#1133=CARTESIAN_POINT('',(2.49659455371629,0.,-48.4516927072413));
#1134=CARTESIAN_POINT('Origin',(4.9965945537163,13.,-48.4516927072413));
#1135=CARTESIAN_POINT('Origin',(4.9965945537163,13.,-48.4516927072413));
#1136=CARTESIAN_POINT('',(3.2965945537163,13.,-48.4516927072413));
#1137=CARTESIAN_POINT('Origin',(4.9965945537163,13.,-48.4516927072413));
#1138=CARTESIAN_POINT('Origin',(101.91004795023,0.,48.4550479502299));
#1139=CARTESIAN_POINT('',(100.21004795023,0.,48.4550479502299));
#1140=CARTESIAN_POINT('Origin',(4.9965945537163,0.,-48.4516927072413));
#1141=CARTESIAN_POINT('',(3.2965945537163,0.,-48.4516927072413));
#1142=CARTESIAN_POINT('Origin',(96.91,0.,-43.4549320030376));
#1143=CARTESIAN_POINT('Origin',(101.90811070634,0.,-48.4569859450007));
#1144=CARTESIAN_POINT('',(100.20811070634,0.,-48.4569859450007));
#1145=CARTESIAN_POINT('Origin',(4.99996904887657,0.,48.4550649493942));
#1146=CARTESIAN_POINT('',(3.29996904887657,0.,48.4550649493942));
#1147=CARTESIAN_POINT('Origin',(106.91,0.,-53.455));
#1148=CARTESIAN_POINT('',(0.,0.,-53.455));
#1149=CARTESIAN_POINT('Origin',(53.455,0.,0.));
#1150=UNCERTAINTY_MEASURE_WITH_UNIT(LENGTH_MEASURE(0.01),#1154,
'DISTANCE_ACCURACY_VALUE',
'Maximum model space distance between geometric entities at asserted c
onnectivities');
#1151=UNCERTAINTY_MEASURE_WITH_UNIT(LENGTH_MEASURE(0.01),#1154,
'DISTANCE_ACCURACY_VALUE',
'Maximum model space distance between geometric entities at asserted c
onnectivities');
#1152=(
GEOMETRIC_REPRESENTATION_CONTEXT(3)
GLOBAL_UNCERTAINTY_ASSIGNED_CONTEXT((#1150))
GLOBAL_UNIT_ASSIGNED_CONTEXT((#1154,#1156,#1157))
REPRESENTATION_CONTEXT('','3D')
);
#1153=(
GEOMETRIC_REPRESENTATION_CONTEXT(3)
GLOBAL_UNCERTAINTY_ASSIGNED_CONTEXT((#1151))
GLOBAL_UNIT_ASSIGNED_CONTEXT((#1154,#1156,#1157))
REPRESENTATION_CONTEXT('','3D')
);
#1154=(
LENGTH_UNIT()
NAMED_UNIT(*)
SI_UNIT(.MILLI.,.METRE.)
);
#1155=(
LENGTH_UNIT()
NAMED_UNIT(*)
SI_UNIT($,.METRE.)
);
#1156=(
NAMED_UNIT(*)
PLANE_ANGLE_UNIT()
SI_UNIT($,.RADIAN.)
);
#1157=(
NAMED_UNIT(*)
SI_UNIT($,.STERADIAN.)
SOLID_ANGLE_UNIT()
);
#1158=SHAPE_DEFINITION_REPRESENTATION(#1159,#1160);
#1159=PRODUCT_DEFINITION_SHAPE('',$,#1162);
#1160=SHAPE_REPRESENTATION('',(#682),#1152);
#1161=PRODUCT_DEFINITION_CONTEXT('part definition',#1166,'design');
#1162=PRODUCT_DEFINITION('2026-09-20-16-37-58-993','Case Bottom',#1163,
#1161);
#1163=PRODUCT_DEFINITION_FORMATION('',$,#1168);
#1164=PRODUCT_RELATED_PRODUCT_CATEGORY('Case Bottom','Case Bottom',(#1168));
#1165=APPLICATION_PROTOCOL_DEFINITION('international standard',
'automotive_design',2009,#1166);
#1166=APPLICATION_CONTEXT(
'Core Data for Automotive Mechanical Design Process');
#1167=PRODUCT_CONTEXT('part definition',#1166,'mechanical');
#1168=PRODUCT('2026-09-20-16-37-58-993','Case Bottom',$,(#1167));
#1169=PRESENTATION_STYLE_ASSIGNMENT((#1170));
#1170=SURFACE_STYLE_USAGE(.BOTH.,#1171);
#1171=SURFACE_SIDE_STYLE('',(#1172));
#1172=SURFACE_STYLE_FILL_AREA(#1173);
#1173=FILL_AREA_STYLE('Steel - Satin',(#1174));
#1174=FILL_AREA_STYLE_COLOUR('Steel - Satin',#1175);
#1175=COLOUR_RGB('Steel - Satin',0.627450980392157,0.627450980392157,0.627450980392157);
ENDSEC;
END-ISO-10303-21;
